<svg xmlns="http://www.w3.org/2000/svg" viewBox="0 0 512 512" width="24" height="24">
  <path d="M473.16 221.48l-2.26-9.59H262.46v88.48h117.3c-5.54 34.26-23.54 62.04-53.47 81.15l-1.29 1.03 72.09 55.92 4.08 1.1c44.46-40.93 70.04-100.07 70.04-167.49-.01-19.49-1.76-38.04-4.99-55.51z" fill="#4285f4"/>
  <path d="M262.46 496c62.64 0 114.69-20.77 152.89-56.05l-76.17-59.01c-20.93 14.04-47.52 22.45-76.72 22.45-57.52 0-106.27-38.85-123.77-90.99l-1.76-4.25-78.59 60.93-2.4 3.97c36.36 71.73 108.97 122.71 196.42 122.71z" fill="#34a853"/>
  <path d="M138.69 302.98c-4.87-14.04-7.61-28.99-7.61-44.5s2.74-30.47 7.61-44.5l-2.4-3.97-78.59-60.93-1.76-4.25C32.73 182.79 16 221.51 16 264c0 42.49 16.73 81.21 42.34 114.75l80.35-65.77z" fill="#fbbc05"/>
  <path d="M262.46 119.63c34.05 0 64.71 12.64 88.82 35.49l64.4-62.48C377.15 56.78 325.1 16 262.46 16c-87.45 0-160.06 50.98-196.42 122.71l80.35 65.77c17.5-52.14 66.25-90.99 123.77-90.99z" fill="#ea4335"/>
</svg>